<svg xmlns="http://www.w3.org/2000/svg" viewBox="0 0 40 40">
  <rect width="40" height="40" rx="10" fill="#81b29a"/>
  <g transform="translate(8, 8)" fill="none" stroke="#ffffff" stroke-width="2" stroke-linecap="round" stroke-linejoin="round">
    <path d="M17 21a1 1 0 0 0 1-1v-5.35c0-.457.316-.844.727-1.041a4 4 0 0 0-2.134-7.589c-.26 0-.52.041-.767.116L16 6a5 5 0 0 0-10 0l.174.826c-.247-.075-.508-.116-.767-.116a4 4 0 0 0-2.134 7.588c.411.198.727.585.727 1.041V20a1 1 0 0 0 1 1Z"/>
    <path d="M6 17h12"/>
  </g>
</svg>